# xmcd CD database file
# Copyright (C) 1993-1998 Ti Kan
# 
# Track frame offsets:
#     150
#     16877
#     33935
#     54865
#     70002
#     87365
#     112060
#     134232
#     152910
#     167415
#     182370
# 
# Disc length: 2747 seconds
# 
# Revision: 1
# Processed by: cddbd v1.4b41PL1 Copyright (c) Steve Scherf et al.
# Submitted via: DiscPlay 4.0.4
# 
DISCID=870ab90b
DTITLE=The Hoax - Unpossible
DYEAR=1900
DGENRE=
TTITLE0=Turn it Upside Down
TTITLE1=Emperor's New Clothes
TTITLE2=Will Be True
TTITLE3=Let it Ride
TTITLE4=Fistful of Dirt
TTITLE5=Realisation Dawns
TTITLE6=Off Your Lead
TTITLE7=Got it Bad
TTITLE8=Hungry Man's Blues
TTITLE9=Fingers of One Hand
TTITLE10=Don't Let Me Cry
EXTD=
EXTT0=
EXTT1=
EXTT2=
EXTT3=
EXTT4=
EXTT5=
EXTT6=
EXTT7=
EXTT8=
EXTT9=
EXTT10=
PLAYORDER=
